%TF.GenerationSoftware,KiCad,Pcbnew,10.0.3*%
%TF.CreationDate,2026-06-19T12:32:47+05:30*%
%TF.ProjectId,RTC design,52544320-6465-4736-9967-6e2e6b696361,rev?*%
%TF.SameCoordinates,Original*%
%TF.FileFunction,Legend,Bot*%
%TF.FilePolarity,Positive*%
%FSLAX46Y46*%
G04 Gerber Fmt 4.6, Leading zero omitted, Abs format (unit mm)*
G04 Created by KiCad (PCBNEW 10.0.3) date 2026-06-19 12:32:47*
%MOMM*%
%LPD*%
G01*
G04 APERTURE LIST*
%ADD10C,0.150000*%
%ADD11C,0.120000*%
G04 APERTURE END LIST*
D10*
X190860714Y-109031009D02*
X190717857Y-109078628D01*
X190717857Y-109078628D02*
X190670238Y-109126247D01*
X190670238Y-109126247D02*
X190622619Y-109221485D01*
X190622619Y-109221485D02*
X190622619Y-109364342D01*
X190622619Y-109364342D02*
X190670238Y-109459580D01*
X190670238Y-109459580D02*
X190717857Y-109507200D01*
X190717857Y-109507200D02*
X190813095Y-109554819D01*
X190813095Y-109554819D02*
X191194047Y-109554819D01*
X191194047Y-109554819D02*
X191194047Y-108554819D01*
X191194047Y-108554819D02*
X190860714Y-108554819D01*
X190860714Y-108554819D02*
X190765476Y-108602438D01*
X190765476Y-108602438D02*
X190717857Y-108650057D01*
X190717857Y-108650057D02*
X190670238Y-108745295D01*
X190670238Y-108745295D02*
X190670238Y-108840533D01*
X190670238Y-108840533D02*
X190717857Y-108935771D01*
X190717857Y-108935771D02*
X190765476Y-108983390D01*
X190765476Y-108983390D02*
X190860714Y-109031009D01*
X190860714Y-109031009D02*
X191194047Y-109031009D01*
X190336904Y-108554819D02*
X189765476Y-108554819D01*
X190051190Y-109554819D02*
X190051190Y-108554819D01*
X188908333Y-109554819D02*
X189479761Y-109554819D01*
X189194047Y-109554819D02*
X189194047Y-108554819D01*
X189194047Y-108554819D02*
X189289285Y-108697676D01*
X189289285Y-108697676D02*
X189384523Y-108792914D01*
X189384523Y-108792914D02*
X189479761Y-108840533D01*
X199461904Y-91454819D02*
X199461904Y-92264342D01*
X199461904Y-92264342D02*
X199414285Y-92359580D01*
X199414285Y-92359580D02*
X199366666Y-92407200D01*
X199366666Y-92407200D02*
X199271428Y-92454819D01*
X199271428Y-92454819D02*
X199080952Y-92454819D01*
X199080952Y-92454819D02*
X198985714Y-92407200D01*
X198985714Y-92407200D02*
X198938095Y-92359580D01*
X198938095Y-92359580D02*
X198890476Y-92264342D01*
X198890476Y-92264342D02*
X198890476Y-91454819D01*
X198509523Y-91454819D02*
X197890476Y-91454819D01*
X197890476Y-91454819D02*
X198223809Y-91835771D01*
X198223809Y-91835771D02*
X198080952Y-91835771D01*
X198080952Y-91835771D02*
X197985714Y-91883390D01*
X197985714Y-91883390D02*
X197938095Y-91931009D01*
X197938095Y-91931009D02*
X197890476Y-92026247D01*
X197890476Y-92026247D02*
X197890476Y-92264342D01*
X197890476Y-92264342D02*
X197938095Y-92359580D01*
X197938095Y-92359580D02*
X197985714Y-92407200D01*
X197985714Y-92407200D02*
X198080952Y-92454819D01*
X198080952Y-92454819D02*
X198366666Y-92454819D01*
X198366666Y-92454819D02*
X198461904Y-92407200D01*
X198461904Y-92407200D02*
X198509523Y-92359580D01*
%TO.C,BT1*%
D11*
X175375000Y-104550000D02*
X175375000Y-106100000D01*
X175375000Y-112250000D02*
X175375000Y-110700000D01*
X178575000Y-100050000D02*
X178575000Y-104550000D01*
X178575000Y-104550000D02*
X175375000Y-104550000D01*
X178575000Y-112250000D02*
X175375000Y-112250000D01*
X178575000Y-116750000D02*
X178575000Y-112250000D01*
X178575000Y-116750000D02*
X199475000Y-116750000D01*
X199475000Y-116750000D02*
X201275000Y-114950000D01*
X201275000Y-100050000D02*
X178575000Y-100050000D01*
X201275000Y-100050000D02*
X201275000Y-104550000D01*
X201275000Y-104550000D02*
X204475000Y-104550000D01*
X201275000Y-112250000D02*
X204475000Y-112250000D01*
X201275000Y-114950000D02*
X201275000Y-112250000D01*
X201925000Y-114400000D02*
X203925000Y-114400000D01*
X202925000Y-113400000D02*
X202925000Y-115400000D01*
X204475000Y-104550000D02*
X204475000Y-106100000D01*
X204475000Y-112250000D02*
X204475000Y-110700000D01*
%TO.C,U3*%
X196640000Y-92840000D02*
X196640000Y-92935000D01*
X196640000Y-97865000D02*
X196640000Y-97960000D01*
X196640000Y-97960000D02*
X200760000Y-97960000D01*
X200760000Y-92840000D02*
X196640000Y-92840000D01*
X200760000Y-92935000D02*
X200760000Y-92840000D01*
X200760000Y-97960000D02*
X200760000Y-97865000D01*
X201300000Y-92930000D02*
X201540000Y-92600000D01*
X201060000Y-92600000D01*
X201300000Y-92930000D01*
G36*
X201300000Y-92930000D02*
G01*
X201060000Y-92600000D01*
X201540000Y-92600000D01*
X201300000Y-92930000D01*
G37*
%TD*%
M02*
