%TF.GenerationSoftware,KiCad,Pcbnew,10.0.3*%
%TF.CreationDate,2026-06-19T12:32:47+05:30*%
%TF.ProjectId,RTC design,52544320-6465-4736-9967-6e2e6b696361,rev?*%
%TF.SameCoordinates,Original*%
%TF.FileFunction,Copper,L2,Bot*%
%TF.FilePolarity,Positive*%
%FSLAX46Y46*%
G04 Gerber Fmt 4.6, Leading zero omitted, Abs format (unit mm)*
G04 Created by KiCad (PCBNEW 10.0.3) date 2026-06-19 12:32:47*
%MOMM*%
%LPD*%
G01*
G04 APERTURE LIST*
G04 Aperture macros list*
%AMRoundRect*
0 Rectangle with rounded corners*
0 $1 Rounding radius*
0 $2 $3 $4 $5 $6 $7 $8 $9 X,Y pos of 4 corners*
0 Add a 4 corners polygon primitive as box body*
4,1,4,$2,$3,$4,$5,$6,$7,$8,$9,$2,$3,0*
0 Add four circle primitives for the rounded corners*
1,1,$1+$1,$2,$3*
1,1,$1+$1,$4,$5*
1,1,$1+$1,$6,$7*
1,1,$1+$1,$8,$9*
0 Add four rect primitives between the rounded corners*
20,1,$1+$1,$2,$3,$4,$5,0*
20,1,$1+$1,$4,$5,$6,$7,0*
20,1,$1+$1,$6,$7,$8,$9,0*
20,1,$1+$1,$8,$9,$2,$3,0*%
G04 Aperture macros list end*
%TA.AperFunction,ComponentPad*%
%ADD10C,1.700000*%
%TD*%
%TA.AperFunction,ComponentPad*%
%ADD11R,1.700000X1.700000*%
%TD*%
%TA.AperFunction,SMDPad,CuDef*%
%ADD12R,2.600000X3.600000*%
%TD*%
%TA.AperFunction,ComponentPad*%
%ADD13C,1.500000*%
%TD*%
%TA.AperFunction,SMDPad,CuDef*%
%ADD14RoundRect,0.150000X0.825000X0.150000X-0.825000X0.150000X-0.825000X-0.150000X0.825000X-0.150000X0*%
%TD*%
%TA.AperFunction,ViaPad*%
%ADD15C,0.600000*%
%TD*%
%TA.AperFunction,Conductor*%
%ADD16C,0.200000*%
%TD*%
G04 APERTURE END LIST*
D10*
%TO.P,J1,5,Pin_5_5*%
%TO.N,GND*%
X210600000Y-111160000D03*
%TO.P,J1,4,Pin_4_4*%
%TO.N,/RTC_SCL*%
X210600000Y-108620000D03*
%TO.P,J1,3,Pin_3_3*%
%TO.N,/RTC_SDA*%
X210600000Y-106080000D03*
%TO.P,J1,2,Pin_2_2*%
%TO.N,/Temp_sensor*%
X210600000Y-103540000D03*
D11*
%TO.P,J1,1,Pin_1_1*%
%TO.N,/+5v*%
X210600000Y-101000000D03*
%TD*%
D12*
%TO.P,BT1,1,+_1*%
%TO.N,Net-(BT1-+)*%
X204575000Y-108400000D03*
%TO.P,BT1,2,-_2*%
%TO.N,GND*%
X175275000Y-108400000D03*
%TD*%
D13*
%TO.P,Y1,1,1_1*%
%TO.N,Net-(U1-X2)*%
X175300000Y-100600000D03*
%TO.P,Y1,2,2_2*%
%TO.N,Net-(U1-X1)*%
X175300000Y-96800000D03*
%TD*%
D14*
%TO.P,U3,1,NC_1*%
%TO.N,unconnected-(U3-NC-Pad1)*%
X201175000Y-93495000D03*
%TO.P,U3,2,NC_2*%
%TO.N,unconnected-(U3-NC-Pad2)*%
X201175000Y-94765000D03*
%TO.P,U3,3,V_{DD}_3*%
%TO.N,/+5v*%
X201175000Y-96035000D03*
%TO.P,U3,4,DQ_4*%
%TO.N,/Temp_sensor*%
X201175000Y-97305000D03*
%TO.P,U3,5,GND_5*%
%TO.N,GND*%
X196225000Y-97305000D03*
%TO.P,U3,6,NC_6*%
%TO.N,unconnected-(U3-NC-Pad6)*%
X196225000Y-96035000D03*
%TO.P,U3,7,NC_7*%
%TO.N,unconnected-(U3-NC-Pad7)*%
X196225000Y-94765000D03*
%TO.P,U3,8,NC_8*%
%TO.N,unconnected-(U3-NC-Pad8)*%
X196225000Y-93495000D03*
%TD*%
D15*
%TO.N,/Temp_sensor*%
X205676652Y-96074558D03*
%TO.N,/+5v*%
X192800000Y-105850000D03*
%TO.N,GND*%
X190850000Y-96150000D03*
%TO.N,/+5v*%
X197075000Y-99300000D03*
%TO.N,GND*%
X205500000Y-94175000D03*
%TO.N,Net-(BT1-+)*%
X196500000Y-112725000D03*
%TO.N,/+5v*%
X194650000Y-103525000D03*
%TO.N,GND*%
X178775000Y-106825000D03*
%TO.N,/+5v*%
X205650000Y-95275000D03*
%TD*%
%TO.N,GND*%
D16*
X198020000Y-97305000D02*
X196225000Y-97305000D01*
X202150000Y-92375000D02*
X200575000Y-92375000D01*
X203950000Y-94175000D02*
X202150000Y-92375000D01*
X205500000Y-94175000D02*
X203950000Y-94175000D01*
X200575000Y-92375000D02*
X199450000Y-93500000D01*
X199450000Y-93500000D02*
X199450000Y-95875000D01*
X199450000Y-95875000D02*
X198020000Y-97305000D01*
%TO.N,/Temp_sensor*%
X204825000Y-96675000D02*
X201805000Y-96675000D01*
X205425442Y-96074558D02*
X204825000Y-96675000D01*
X205676652Y-96074558D02*
X205425442Y-96074558D01*
X201805000Y-96675000D02*
X201175000Y-97305000D01*
%TO.N,/+5v*%
X205250000Y-95625000D02*
X201585000Y-95625000D01*
X205650000Y-95275000D02*
X205600000Y-95275000D01*
X205600000Y-95275000D02*
X205250000Y-95625000D01*
%TO.N,GND*%
X195280000Y-98250000D02*
X196225000Y-97305000D01*
X194600000Y-98250000D02*
X195280000Y-98250000D01*
X190850000Y-96150000D02*
X192500000Y-96150000D01*
X192500000Y-96150000D02*
X194600000Y-98250000D01*
%TO.N,/+5v*%
X197075000Y-99300000D02*
X200750000Y-95625000D01*
X200750000Y-95625000D02*
X201585000Y-95625000D01*
%TO.N,Net-(BT1-+)*%
X203800000Y-107650000D02*
X204550000Y-108400000D01*
X200025000Y-107650000D02*
X203800000Y-107650000D01*
X196500000Y-111175000D02*
X200025000Y-107650000D01*
X196500000Y-112725000D02*
X196500000Y-111175000D01*
%TO.N,GND*%
X178775000Y-106825000D02*
X177200000Y-108400000D01*
X177200000Y-108400000D02*
X175250000Y-108400000D01*
%TO.N,/+5v*%
X201585000Y-95625000D02*
X201175000Y-96035000D01*
X194650000Y-103525000D02*
X192800000Y-105375000D01*
X192800000Y-105375000D02*
X192800000Y-105850000D01*
%TD*%
M02*
